<?xml version="1.0" encoding="utf-8"?>
<!-- Generator: Adobe Illustrator 16.0.0, SVG Export Plug-In . SVG Version: 6.00 Build 0)  -->
<!DOCTYPE svg PUBLIC "-//W3C//DTD SVG 1.1//EN" "http://www.w3.org/Graphics/SVG/1.1/DTD/svg11.dtd">
<svg version="1.1" id="Layer_1" xmlns="http://www.w3.org/2000/svg" xmlns:xlink="http://www.w3.org/1999/xlink" x="0px" y="0px"
	 width="1178px" height="926px" viewBox="51.5 -175.5 1178 926" enable-background="new 51.5 -175.5 1178 926" xml:space="preserve"
	>
<path d="M865.28,32H414.72c-21.12,0-38.4,17.28-38.4,38.4v499.2c0,21.12,17.28,38.4,38.4,38.4H518.4H761.6H865.28
	c21.12,0,38.399-17.28,38.399-38.4V70.4C903.68,49.28,886.4,32,865.28,32z M569.6,556.8v-89.6H710.4v89.6H569.6z M852.48,556.8
	H761.6V454.4c0-21.12-17.279-38.4-38.399-38.4H556.8c-21.12,0-38.399,17.28-38.399,38.4V556.8H427.52V83.2H852.48V556.8z M512,160
	c0-14.08,11.52-25.6,25.6-25.6S563.2,145.92,563.2,160s-11.521,25.6-25.601,25.6S512,174.08,512,160z M512,339.2
	c0-14.08,11.52-25.601,25.6-25.601S563.2,325.12,563.2,339.2s-11.521,25.6-25.601,25.6S512,353.28,512,339.2z M512,249.6
	c0-14.08,11.52-25.6,25.6-25.6s25.601,11.52,25.601,25.6s-11.521,25.6-25.601,25.6S512,263.68,512,249.6z M614.4,160
	c0-14.08,11.52-25.6,25.6-25.6s25.6,11.52,25.6,25.6s-11.52,25.6-25.6,25.6S614.4,174.08,614.4,160z M614.4,339.2
	c0-14.08,11.52-25.601,25.6-25.601s25.6,11.521,25.6,25.601s-11.52,25.6-25.6,25.6S614.4,353.28,614.4,339.2z M614.4,249.6
	c0-14.08,11.52-25.6,25.6-25.6s25.6,11.52,25.6,25.6s-11.52,25.6-25.6,25.6S614.4,263.68,614.4,249.6z M716.8,160
	c0-14.08,11.521-25.6,25.601-25.6S768,145.92,768,160s-11.52,25.6-25.6,25.6S716.8,174.08,716.8,160z M716.8,339.2
	c0-14.08,11.521-25.601,25.601-25.601S768,325.12,768,339.2s-11.52,25.6-25.6,25.6S716.8,353.28,716.8,339.2z M716.8,249.6
	c0-14.08,11.521-25.6,25.601-25.6s25.6,11.52,25.6,25.6s-11.52,25.6-25.6,25.6S716.8,263.68,716.8,249.6z"/>
</svg>
