<?xml version="1.0" encoding="utf-8"?>
<!-- Generator: Adobe Illustrator 16.0.0, SVG Export Plug-In . SVG Version: 6.00 Build 0)  -->
<!DOCTYPE svg PUBLIC "-//W3C//DTD SVG 1.1//EN" "http://www.w3.org/Graphics/SVG/1.1/DTD/svg11.dtd">
<svg version="1.1" id="Layer_1" xmlns="http://www.w3.org/2000/svg" xmlns:xlink="http://www.w3.org/1999/xlink" x="0px" y="0px"
	 width="1178px" height="1178px" viewBox="0 -1.25 1178 1178" enable-background="new 0 -1.25 1178 1178" xml:space="preserve">
<path d="M814.281,299.75H363.721c-21.12,0-38.4,17.28-38.4,38.4v499.2c0,21.12,17.28,38.4,38.4,38.4h103.681h243.199h103.681
	c21.12,0,38.398-17.28,38.398-38.4v-499.2C852.681,317.03,835.401,299.75,814.281,299.75z M518.601,824.55v-89.6h140.801v89.6
	H518.601z M801.481,824.55h-90.881V722.15c0-21.12-17.278-38.4-38.398-38.4H505.801c-21.12,0-38.398,17.28-38.398,38.4V824.55
	h-90.882v-473.6h424.961V824.55z M461.001,427.75c0-14.08,11.52-25.6,25.6-25.6s25.601,11.52,25.601,25.6s-11.521,25.6-25.602,25.6
	S461.001,441.83,461.001,427.75z M461.001,606.95c0-14.08,11.52-25.602,25.6-25.602s25.601,11.521,25.601,25.602
	s-11.521,25.6-25.602,25.6S461.001,621.03,461.001,606.95z M461.001,517.35c0-14.08,11.52-25.6,25.6-25.6s25.602,11.52,25.602,25.6
	s-11.521,25.601-25.602,25.601S461.001,531.43,461.001,517.35z M563.401,427.75c0-14.08,11.52-25.6,25.6-25.6s25.6,11.52,25.6,25.6
	s-11.52,25.6-25.6,25.6S563.401,441.83,563.401,427.75z M563.401,606.95c0-14.08,11.52-25.602,25.6-25.602s25.6,11.521,25.6,25.602
	s-11.52,25.6-25.6,25.6S563.401,621.03,563.401,606.95z M563.401,517.35c0-14.08,11.52-25.6,25.6-25.6s25.6,11.52,25.6,25.6
	s-11.52,25.601-25.6,25.601S563.401,531.43,563.401,517.35z M665.801,427.75c0-14.08,11.521-25.6,25.602-25.6
	s25.599,11.52,25.599,25.6s-11.52,25.6-25.6,25.6S665.801,441.83,665.801,427.75z M665.801,606.95
	c0-14.08,11.521-25.602,25.602-25.602s25.599,11.521,25.599,25.602s-11.52,25.6-25.6,25.6S665.801,621.03,665.801,606.95z
	 M665.801,517.35c0-14.08,11.521-25.6,25.602-25.6s25.6,11.52,25.6,25.6s-11.521,25.601-25.6,25.601
	C677.322,542.95,665.801,531.43,665.801,517.35z"/>
</svg>
